name Walk1_EMG.mot
datacolumns 17
datarows 11
range 3.99300000 4.00300000
endheader
                time	            vasmed_r	            vaslat_r	            recfem_r	               gra_r	               sar_r	            tibant_r	           perlong_r	            addmag_r	           semimem_r	          bicfemlh_r	            gasmed_r	            gaslat_r	               sol_r	               tfl_r	              gmed_r	              gmax_r	
          3.99300000	          0.31590408	          0.74868897	          0.60034995	          0.18259518	          0.03574882	          0.19998250	          0.92219935	          0.99817840	          0.20455710	          0.18398320	          0.22066703	          0.44463864	          0.17732166	          0.39251791	          0.56242415	          0.53003457	
          3.99400000	          0.31506593	          0.74005179	          0.59207086	          0.18387901	          0.03584746	          0.19772458	          0.91440334	          0.99540145	          0.20140919	          0.17805478	          0.22133394	          0.44480812	          0.17996875	          0.39118040	          0.55602990	          0.52727659	
          3.99500000	          0.31375033	          0.73089528	          0.58338199	          0.18574337	          0.03594686	          0.19521951	          0.90525349	          0.99140392	          0.19855346	          0.17216518	          0.22212495	          0.44466892	          0.18275192	          0.38984017	          0.54985308	          0.52421924	
          3.99600000	          0.31196576	          0.72124242	          0.57430779	          0.18817068	          0.03604649	          0.19247977	          0.89478791	          0.98621271	          0.19599306	          0.16632448	          0.22303837	          0.44423156	          0.18565990	          0.38852577	          0.54392333	          0.52087406	
          3.99700000	          0.30972256	          0.71111501	          0.56487251	          0.19113796	          0.03614581	          0.18951832	          0.88305198	          0.97986221	          0.19372994	          0.16054245	          0.22407118	          0.44351176	          0.18868446	          0.38726946	          0.53827368	          0.51725243	
          3.99800000	          0.30703278	          0.70053378	          0.55510041	          0.19461656	          0.03624437	          0.18634875	          0.87009763	          0.97239360	          0.19176431	          0.15482868	          0.22522071	          0.44252936	          0.19181729	          0.38610184	          0.53293369	          0.51336577	
          3.99900000	          0.30391006	          0.68951849	          0.54501608	          0.19857322	          0.03634172	          0.18298560	          0.85598140	          0.96385480	          0.19009579	          0.14919280	          0.22648387	          0.44130693	          0.19504767	          0.38504844	          0.52792659	          0.50922709	
          4.00000000	          0.30036952	          0.67808818	          0.53464426	          0.20297118	          0.03643747	          0.17944427	          0.84076325	          0.95430025	          0.18872416	          0.14364423	          0.22785582	          0.43987056	          0.19836257	          0.38413030	          0.52327054	          0.50485166	
          4.00100000	          0.29642760	          0.66626147	          0.52400970	          0.20777111	          0.03653129	          0.17574062	          0.82450676	          0.94378886	          0.18764827	          0.13819199	          0.22932991	          0.43825123	          0.20174984	          0.38336589	          0.51898192	          0.50025586	
          4.00200000	          0.29210192	          0.65405707	          0.51313771	          0.21293145	          0.03662288	          0.17189071	          0.80727989	          0.93238119	          0.18686495	          0.13284482	          0.23089843	          0.43648279	          0.20520204	          0.38277137	          0.51507630	          0.49545576	
          4.00300000	          0.28741119	          0.64149429	          0.50205501	          0.21840822	          0.03671194	          0.16791069	          0.78915453	          0.92013848	          0.18636896	          0.12761180	          0.23255383	          0.43459705	          0.20871640	          0.38235882	          0.51156569	          0.49046607	
